<?xml version="1.0" encoding="utf-8"?>
<!-- Generator: Adobe Illustrator 16.0.0, SVG Export Plug-In . SVG Version: 6.00 Build 0)  -->
<!DOCTYPE svg PUBLIC "-//W3C//DTD SVG 1.1//EN" "http://www.w3.org/Graphics/SVG/1.1/DTD/svg11.dtd">
<svg version="1.1" xmlns="http://www.w3.org/2000/svg" xmlns:xlink="http://www.w3.org/1999/xlink" x="0px" y="0px"
	 width="286.833px" height="56.334px" viewBox="0 0 286.833 56.334" enable-background="new 0 0 286.833 56.334"
	 xml:space="preserve">
<g id="Layer_1">
	<g>
		<path fill="#FDFDFE" d="M71.392,40.89c-2.101-1.128-3.744-2.683-4.932-4.662c-1.188-1.98-1.782-4.206-1.782-6.678
			s0.594-4.698,1.782-6.679c1.188-1.979,2.832-3.533,4.932-4.662c2.1-1.127,4.458-1.691,7.074-1.691
			c2.616,0,4.968,0.564,7.056,1.691c2.088,1.129,3.731,2.683,4.932,4.662c1.2,1.98,1.8,4.207,1.8,6.679s-0.6,4.697-1.8,6.678
			c-1.201,1.979-2.844,3.534-4.932,4.662s-4.44,1.691-7.056,1.691C75.85,42.581,73.492,42.018,71.392,40.89z M82.498,36.588
			c1.2-0.685,2.142-1.639,2.826-2.862c0.684-1.225,1.026-2.616,1.026-4.176c0-1.561-0.342-2.952-1.026-4.177
			c-0.684-1.224-1.626-2.178-2.826-2.861c-1.201-0.685-2.544-1.026-4.032-1.026c-1.488,0-2.832,0.342-4.032,1.026
			c-1.201,0.684-2.142,1.638-2.826,2.861c-0.684,1.225-1.026,2.616-1.026,4.177c0,1.56,0.342,2.951,1.026,4.176
			c0.684,1.224,1.625,2.178,2.826,2.862c1.2,0.684,2.543,1.025,4.032,1.025C79.954,37.613,81.297,37.271,82.498,36.588z"/>
		<path fill="#FDFDFE" d="M119.758,16.949v25.2h-4.788l-12.564-15.3v15.3h-5.76v-25.2h4.824l12.528,15.3v-15.3H119.758z"/>
		<path fill="#FDFDFE" d="M125.733,16.949h5.832v20.448h12.636v4.752h-18.468V16.949z"/>
		<path fill="#FDFDFE" d="M156.981,33.222v8.928h-5.832v-9l-9.756-16.2h6.192l6.732,11.196l6.732-11.196h5.724L156.981,33.222z"/>
		<path fill="#3382B9" d="M191.902,42.149l-0.036-15.12l-7.416,12.456h-2.628l-7.38-12.132v14.796h-5.472v-25.2h4.825l9.432,15.66
			l9.288-15.66h4.787l0.072,25.2H191.902z"/>
		<path fill="#3382B9" d="M219.946,36.749h-11.7l-2.231,5.4h-5.977l11.232-25.2h5.76l11.268,25.2h-6.119L219.946,36.749z
			 M218.11,32.321l-3.996-9.647l-3.996,9.647H218.11z"/>
		<path fill="#3382B9" d="M254.037,16.949v25.2h-4.788l-12.563-15.3v15.3h-5.76v-25.2h4.823l12.528,15.3v-15.3H254.037z"/>
		<path fill="#3382B9" d="M262.803,39.594c-2.005-1.992-3.006-4.836-3.006-8.532V16.949h5.831v13.896
			c0,4.512,1.872,6.768,5.616,6.768c1.824,0,3.216-0.546,4.177-1.638c0.959-1.092,1.439-2.802,1.439-5.13V16.949h5.76v14.112
			c0,3.696-1.002,6.54-3.006,8.532s-4.806,2.987-8.406,2.987C267.609,42.581,264.806,41.586,262.803,39.594z"/>
	</g>
</g>
<g id="Layer_2">
	<circle fill="#E5E5E5" stroke="#3382B9" stroke-width="2" stroke-miterlimit="10" cx="31" cy="29.564" r="25.251"/>
	<g>
		<defs>
			<path id="SVGID_1_" d="M54.037,31.745c0,12.44-10.323,22.52-23.054,22.52c-12.733,0-23.055-10.079-23.055-22.52
				c0-12.441,10.322-22.526,23.055-22.526C43.714,9.219,54.037,19.304,54.037,31.745z"/>
		</defs>
		<clipPath id="SVGID_2_">
			<use xlink:href="#SVGID_1_"  overflow="visible"/>
		</clipPath>
		<path clip-path="url(#SVGID_2_)" fill="#1B262C" stroke="#000000" stroke-width="0.25" stroke-miterlimit="10" d="M40.543,33.306
			c-0.179,1.116-4.235,2.048-9.458,2.048c-5.224,0-9.376-0.923-9.458-2.048c-0.093-1.291,4.29-3.064,9.515-3.064
			C36.364,30.241,40.732,32.13,40.543,33.306z"/>
		<rect x="21.724" y="32.786" clip-path="url(#SVGID_2_)" fill="#1B262C" width="18.819" height="22.548"/>
	</g>
	<path fill="#1B262C" stroke="#000000" stroke-width="0.25" stroke-miterlimit="10" d="M21.806,32.786
		c0,0-8.649,10.354-8.658,11.529c-0.013,1.178,9.137,8.142,9.137,8.142"/>
	<path fill="#1B262C" stroke="#000000" stroke-width="0.25" stroke-miterlimit="10" d="M40.368,32.786c0,0,8.42,10.354,8.432,11.529
		c0.01,1.178-8.912,8.142-8.912,8.142"/>
	<path fill="#1B262C" d="M39.516,27.327c-2.038,6.289-4.463,8.436-8.642,8.436c-4.18,0-5.171-2.212-8.329-8.754
		c-1.111-2.3,5.977-14.053,8.648-14.053C33.921,12.956,40.335,24.804,39.516,27.327z"/>
	<path fill="#354147" d="M39.588,26.57c-2.822-1.797-6.116-3.5-8.559-3.577c-2.444-0.08-5.25,1.514-8.601,3.339
		c-0.385-1.768,6.094-13.376,8.765-13.376C33.922,12.956,40.154,24.918,39.588,26.57z"/>
	
		<ellipse transform="matrix(-0.9988 0.0488 -0.0488 -0.9988 68.3854 50.8132)" fill="#3382B9" cx="33.573" cy="26.241" rx="1.256" ry="0.544"/>
	
		<ellipse transform="matrix(0.9988 0.0488 -0.0488 0.9988 1.3142 -1.354)" fill="#3382B9" cx="28.391" cy="26.241" rx="1.256" ry="0.544"/>
	
		<rect x="18.954" y="52.635" fill="#276587" stroke="#000000" stroke-width="0.25" stroke-miterlimit="10" width="24.201" height="1.999"/>
	
		<rect x="18.333" y="39.057" fill="#3382B9" stroke="#000000" stroke-width="0.25" stroke-miterlimit="10" width="25.443" height="14.573"/>
	
		<rect x="18.333" y="54.273" fill="#3382B9" stroke="#000000" stroke-width="0.25" stroke-miterlimit="10" width="25.443" height="1.061"/>
	<g>
		<path fill="#F6F6F6" d="M29.377,45.644l-1.291,0.478l1.291,0.468v0.483l-1.847-0.704v-0.5l1.847-0.701V45.644z"/>
		<path fill="#F6F6F6" d="M31.446,44.212h0.538l-1.279,3.65h-0.538L31.446,44.212z"/>
		<path fill="#F6F6F6" d="M34.581,45.868v0.5l-1.844,0.704v-0.483l1.289-0.468l-1.289-0.478v-0.477L34.581,45.868z"/>
	</g>
</g>
</svg>
