<?xml version="1.0" encoding="utf-8"?>
<!-- Generator: Adobe Illustrator 16.0.0, SVG Export Plug-In . SVG Version: 6.00 Build 0)  -->
<!DOCTYPE svg PUBLIC "-//W3C//DTD SVG 1.1//EN" "http://www.w3.org/Graphics/SVG/1.1/DTD/svg11.dtd">
<svg version="1.1" xmlns="http://www.w3.org/2000/svg" xmlns:xlink="http://www.w3.org/1999/xlink" x="0px" y="0px" width="124px"
	 height="41.892px" viewBox="0 0 124 41.892" enable-background="new 0 0 124 41.892" xml:space="preserve">
<g id="Layer_1">
	<g>
		<path fill="#FDFDFE" d="M43.355,21.33c-0.792-0.426-1.412-1.011-1.859-1.758c-0.448-0.746-0.672-1.586-0.672-2.518
			c0-0.933,0.224-1.772,0.672-2.519c0.448-0.747,1.068-1.333,1.859-1.758c0.792-0.424,1.681-0.638,2.668-0.638
			c0.985,0,1.873,0.213,2.66,0.638c0.787,0.426,1.407,1.012,1.859,1.758c0.453,0.746,0.679,1.586,0.679,2.519
			c0,0.932-0.226,1.771-0.679,2.518c-0.453,0.747-1.072,1.332-1.859,1.758c-0.788,0.426-1.675,0.638-2.66,0.638
			C45.036,21.967,44.147,21.756,43.355,21.33z M47.543,19.707c0.452-0.258,0.808-0.616,1.065-1.078
			c0.258-0.462,0.387-0.987,0.387-1.575c0-0.589-0.128-1.114-0.387-1.575c-0.257-0.461-0.613-0.821-1.065-1.079
			c-0.453-0.258-0.959-0.387-1.52-0.387c-0.561,0-1.068,0.129-1.521,0.387c-0.453,0.258-0.808,0.618-1.066,1.079
			c-0.258,0.461-0.387,0.986-0.387,1.575c0,0.587,0.128,1.113,0.387,1.575c0.258,0.461,0.613,0.82,1.066,1.078
			c0.452,0.258,0.959,0.387,1.521,0.387C46.584,20.094,47.091,19.965,47.543,19.707z"/>
		<path fill="#FDFDFE" d="M61.593,12.302v9.502h-1.807l-4.736-5.769v5.769h-2.172v-9.502h1.819l4.723,5.77v-5.77H61.593z"/>
		<path fill="#FDFDFE" d="M63.845,12.302h2.199v7.709h4.765v1.792h-6.964V12.302z"/>
		<path fill="#FDFDFE" d="M75.627,18.438v3.367h-2.198v-3.394l-3.679-6.108h2.335l2.538,4.222l2.539-4.222h2.158L75.627,18.438z"/>
		<path fill="#3382B9" d="M88.794,21.804l-0.013-5.701l-2.796,4.698h-0.991l-2.782-4.575v5.579h-2.064v-9.502h1.82l3.557,5.904
			l3.502-5.904h1.805l0.026,9.502H88.794z"/>
		<path fill="#3382B9" d="M99.368,19.768h-4.412l-0.84,2.036h-2.253l4.235-9.502h2.171l4.248,9.502h-2.307L99.368,19.768z
			 M98.676,18.099l-1.506-3.637l-1.507,3.637H98.676z"/>
		<path fill="#3382B9" d="M112.222,12.302v9.502h-1.805l-4.737-5.769v5.769h-2.171v-9.502h1.818l4.724,5.77v-5.77H112.222z"/>
		<path fill="#3382B9" d="M115.528,20.841c-0.757-0.751-1.134-1.823-1.134-3.217v-5.321h2.199v5.24c0,1.703,0.706,2.552,2.118,2.552
			c0.688,0,1.212-0.207,1.574-0.617c0.362-0.413,0.543-1.058,0.543-1.935v-5.24H123v5.321c0,1.395-0.378,2.466-1.133,3.217
			c-0.756,0.751-1.812,1.126-3.17,1.126C117.34,21.967,116.283,21.592,115.528,20.841z"/>
	</g>
	<g>
		<path fill="#CBD2D8" d="M44.78,25.918c0.395,0.225,0.705,0.538,0.929,0.943c0.224,0.404,0.336,0.864,0.336,1.38
			s-0.113,0.975-0.336,1.376c-0.224,0.401-0.534,0.717-0.929,0.943c-0.395,0.229-0.836,0.343-1.326,0.343
			c-0.468,0-0.892-0.114-1.27-0.337c-0.379-0.225-0.671-0.537-0.879-0.938v1.234h-0.482v-7.45h0.502v3.403
			c0.208-0.388,0.499-0.69,0.874-0.908c0.375-0.217,0.793-0.326,1.255-0.326C43.944,25.582,44.385,25.693,44.78,25.918z
			 M44.51,30.17c0.321-0.188,0.573-0.449,0.757-0.784c0.184-0.334,0.276-0.716,0.276-1.145s-0.092-0.81-0.276-1.145
			s-0.437-0.596-0.757-0.782c-0.322-0.188-0.684-0.281-1.085-0.281c-0.401,0-0.761,0.093-1.079,0.281
			c-0.319,0.187-0.569,0.447-0.753,0.782s-0.276,0.716-0.276,1.145s0.092,0.811,0.276,1.145c0.184,0.335,0.435,0.596,0.753,0.784
			c0.317,0.187,0.678,0.281,1.079,0.281C43.826,30.452,44.188,30.357,44.51,30.17z"/>
		<path fill="#CBD2D8" d="M48.837,25.888c0.341-0.205,0.756-0.307,1.245-0.307v0.491l-0.121-0.01c-0.583,0-1.038,0.183-1.365,0.547
			c-0.328,0.366-0.492,0.872-0.492,1.521v2.731h-0.502v-5.242h0.482v1.145C48.245,26.385,48.496,26.092,48.837,25.888z"/>
		<path fill="#CBD2D8" d="M51.428,24.231c-0.08-0.078-0.121-0.172-0.121-0.287c0-0.113,0.041-0.211,0.121-0.291
			c0.081-0.079,0.177-0.119,0.292-0.119c0.114,0,0.211,0.037,0.291,0.114c0.081,0.077,0.121,0.173,0.121,0.286
			c0,0.114-0.04,0.211-0.121,0.291c-0.08,0.082-0.177,0.121-0.291,0.121C51.605,24.346,51.508,24.309,51.428,24.231z M51.468,25.621
			h0.502v5.242h-0.502V25.621z"/>
		<path fill="#CBD2D8" d="M58.206,26.154c0.381,0.382,0.572,0.931,0.572,1.646v3.063h-0.502V27.84c0-0.59-0.149-1.037-0.447-1.346
			c-0.298-0.308-0.715-0.461-1.25-0.461c-0.617,0-1.102,0.184-1.456,0.552c-0.355,0.368-0.532,0.863-0.532,1.485v2.792h-0.502
			v-5.242h0.482v1.135c0.181-0.367,0.45-0.654,0.808-0.864c0.358-0.207,0.782-0.31,1.27-0.31
			C57.305,25.582,57.824,25.772,58.206,26.154z"/>
		<path fill="#CBD2D8" d="M65.576,25.621v4.68c0,0.871-0.211,1.514-0.633,1.929c-0.422,0.414-1.058,0.622-1.908,0.622
			c-0.482,0-0.938-0.074-1.366-0.221c-0.429-0.148-0.773-0.352-1.034-0.612l0.271-0.382c0.262,0.241,0.576,0.428,0.944,0.563
			c0.368,0.133,0.76,0.199,1.175,0.199c0.696,0,1.211-0.164,1.546-0.496c0.334-0.331,0.502-0.845,0.502-1.54v-0.884
			c-0.215,0.381-0.513,0.675-0.894,0.884c-0.382,0.207-0.811,0.31-1.286,0.31c-0.488,0-0.932-0.108-1.331-0.325
			c-0.398-0.218-0.71-0.521-0.938-0.909c-0.227-0.389-0.341-0.827-0.341-1.315s0.114-0.928,0.341-1.315
			c0.228-0.389,0.54-0.689,0.938-0.902c0.399-0.215,0.843-0.322,1.331-0.322c0.482,0,0.917,0.107,1.306,0.322
			c0.388,0.213,0.686,0.514,0.894,0.902v-1.186H65.576z M64.039,29.954c0.328-0.177,0.584-0.424,0.769-0.743
			c0.184-0.316,0.276-0.681,0.276-1.089s-0.092-0.77-0.276-1.085c-0.185-0.313-0.44-0.56-0.769-0.737
			c-0.328-0.178-0.696-0.266-1.104-0.266c-0.408,0-0.774,0.088-1.1,0.266c-0.325,0.178-0.579,0.425-0.763,0.737
			c-0.184,0.315-0.276,0.677-0.276,1.085s0.092,0.772,0.276,1.089c0.184,0.319,0.438,0.566,0.763,0.743
			c0.325,0.178,0.691,0.268,1.1,0.268C63.343,30.221,63.711,30.131,64.039,29.954z"/>
		<path fill="#CBD2D8" d="M70.245,24.231c-0.081-0.078-0.121-0.172-0.121-0.287c0-0.113,0.041-0.211,0.121-0.291
			c0.08-0.079,0.177-0.119,0.291-0.119s0.21,0.037,0.292,0.114c0.08,0.077,0.12,0.173,0.12,0.286c0,0.114-0.04,0.211-0.12,0.291
			c-0.081,0.082-0.178,0.121-0.292,0.121S70.325,24.309,70.245,24.231z M70.285,25.621h0.502v5.242h-0.502V25.621z"/>
		<path fill="#CBD2D8" d="M75.506,30.531c-0.127,0.12-0.286,0.214-0.477,0.276c-0.19,0.064-0.39,0.097-0.597,0.097
			c-0.456,0-0.807-0.127-1.055-0.377c-0.248-0.251-0.372-0.602-0.372-1.049v-3.426h-0.964v-0.432h0.964v-1.144h0.502v1.144h1.667
			v0.432h-1.667v3.375c0,0.342,0.083,0.601,0.247,0.778c0.164,0.178,0.406,0.266,0.728,0.266c0.328,0,0.599-0.097,0.813-0.291
			L75.506,30.531z"/>
		<path fill="#CBD2D8" d="M82.083,30.531c-0.127,0.12-0.286,0.214-0.477,0.276c-0.191,0.064-0.39,0.097-0.598,0.097
			c-0.455,0-0.806-0.127-1.054-0.377c-0.248-0.251-0.372-0.602-0.372-1.049v-3.426h-0.964v-0.432h0.964v-1.144h0.502v1.144h1.667
			v0.432h-1.667v3.375c0,0.342,0.082,0.601,0.247,0.778c0.164,0.178,0.406,0.266,0.727,0.266c0.328,0,0.599-0.097,0.814-0.291
			L82.083,30.531z"/>
		<path fill="#CBD2D8" d="M83.995,30.561c-0.398-0.227-0.711-0.543-0.938-0.949c-0.228-0.404-0.341-0.861-0.341-1.37
			s0.113-0.966,0.341-1.37c0.228-0.405,0.541-0.722,0.938-0.95c0.399-0.227,0.845-0.34,1.341-0.34c0.495,0,0.941,0.113,1.341,0.34
			c0.397,0.229,0.711,0.545,0.938,0.95c0.228,0.404,0.341,0.861,0.341,1.37s-0.114,0.966-0.341,1.37
			c-0.227,0.406-0.541,0.723-0.938,0.949c-0.399,0.229-0.846,0.343-1.341,0.343C84.84,30.904,84.394,30.79,83.995,30.561z
			 M86.415,30.17c0.318-0.188,0.57-0.449,0.753-0.784c0.185-0.334,0.277-0.716,0.277-1.145s-0.092-0.81-0.277-1.145
			c-0.183-0.335-0.435-0.596-0.753-0.782c-0.318-0.188-0.678-0.281-1.079-0.281c-0.402,0-0.762,0.093-1.08,0.281
			c-0.319,0.187-0.569,0.447-0.753,0.782s-0.276,0.716-0.276,1.145s0.092,0.811,0.276,1.145c0.184,0.335,0.435,0.596,0.753,0.784
			c0.317,0.187,0.678,0.281,1.08,0.281C85.737,30.452,86.097,30.357,86.415,30.17z"/>
		<path fill="#CBD2D8" d="M93.329,25.888c0.341-0.205,0.756-0.307,1.245-0.307v0.491l-0.12-0.01c-0.583,0-1.039,0.183-1.366,0.547
			c-0.329,0.366-0.492,0.872-0.492,1.521v2.731h-0.502v-5.242h0.482v1.145C92.737,26.385,92.988,26.092,93.329,25.888z"/>
		<path fill="#CBD2D8" d="M100.338,28.362h-4.509c0.013,0.409,0.117,0.772,0.312,1.091c0.193,0.317,0.457,0.564,0.789,0.738
			c0.331,0.173,0.704,0.261,1.119,0.261c0.341,0,0.658-0.063,0.949-0.187c0.292-0.123,0.534-0.306,0.728-0.548l0.29,0.333
			c-0.227,0.273-0.514,0.485-0.857,0.632c-0.345,0.148-0.717,0.222-1.12,0.222c-0.522,0-0.987-0.114-1.396-0.343
			c-0.409-0.227-0.729-0.542-0.959-0.943c-0.231-0.401-0.346-0.86-0.346-1.376c0-0.509,0.107-0.966,0.325-1.37
			c0.218-0.405,0.518-0.722,0.9-0.95c0.381-0.227,0.81-0.34,1.285-0.34c0.475,0,0.901,0.111,1.28,0.337
			c0.378,0.225,0.676,0.536,0.893,0.938c0.218,0.402,0.327,0.857,0.327,1.366L100.338,28.362z M96.854,26.269
			c-0.296,0.164-0.531,0.396-0.708,0.693c-0.178,0.297-0.279,0.633-0.306,1.009h4.017c-0.021-0.376-0.121-0.71-0.302-1.004
			c-0.18-0.295-0.418-0.526-0.713-0.693c-0.294-0.168-0.626-0.251-0.994-0.251C97.479,26.023,97.147,26.104,96.854,26.269z"/>
		<path fill="#CBD2D8" d="M105.017,26.078c0.348,0.332,0.521,0.819,0.521,1.461v3.324h-0.481v-0.935
			c-0.167,0.309-0.412,0.549-0.733,0.719c-0.322,0.171-0.707,0.257-1.154,0.257c-0.582,0-1.043-0.139-1.381-0.412
			c-0.338-0.275-0.508-0.637-0.508-1.085c0-0.436,0.156-0.788,0.468-1.06c0.311-0.271,0.808-0.407,1.491-0.407h1.797v-0.421
			c0-0.488-0.133-0.86-0.396-1.114c-0.265-0.255-0.651-0.382-1.159-0.382c-0.349,0-0.683,0.061-1,0.18
			c-0.318,0.122-0.587,0.282-0.808,0.482l-0.251-0.36c0.261-0.234,0.576-0.417,0.944-0.547c0.368-0.131,0.752-0.196,1.155-0.196
			C104.169,25.582,104.669,25.748,105.017,26.078z M104.35,30.191c0.303-0.202,0.533-0.493,0.687-0.875v-0.983h-1.787
			c-0.515,0-0.889,0.094-1.119,0.281c-0.231,0.188-0.347,0.446-0.347,0.772c0,0.343,0.127,0.611,0.382,0.809
			c0.254,0.197,0.611,0.297,1.074,0.297C103.674,30.492,104.044,30.39,104.35,30.191z"/>
		<path fill="#CBD2D8" d="M107.608,23.413h0.501v7.45h-0.501V23.413z"/>
		<path fill="#CBD2D8" d="M110.188,24.231c-0.081-0.078-0.121-0.172-0.121-0.287c0-0.113,0.04-0.211,0.121-0.291
			c0.08-0.079,0.178-0.119,0.291-0.119s0.211,0.037,0.292,0.114c0.08,0.077,0.121,0.173,0.121,0.286
			c0,0.114-0.041,0.211-0.121,0.291c-0.081,0.082-0.178,0.121-0.292,0.121S110.267,24.309,110.188,24.231z M110.228,25.621h0.502
			v5.242h-0.502V25.621z"/>
		<path fill="#CBD2D8" d="M115.449,30.531c-0.127,0.12-0.286,0.214-0.477,0.276c-0.19,0.064-0.389,0.097-0.597,0.097
			c-0.455,0-0.807-0.127-1.054-0.377c-0.248-0.251-0.372-0.602-0.372-1.049v-3.426h-0.963v-0.432h0.963v-1.144h0.502v1.144h1.667
			v0.432h-1.667v3.375c0,0.342,0.082,0.601,0.246,0.778c0.164,0.178,0.407,0.266,0.728,0.266c0.328,0,0.599-0.097,0.813-0.291
			L115.449,30.531z"/>
		<path fill="#CBD2D8" d="M120.951,25.621l-2.691,5.956c-0.201,0.461-0.433,0.788-0.698,0.983c-0.264,0.194-0.577,0.291-0.938,0.291
			c-0.242,0-0.467-0.039-0.677-0.121c-0.211-0.08-0.391-0.197-0.538-0.352l0.25-0.381c0.268,0.274,0.593,0.411,0.975,0.411
			c0.254,0,0.471-0.069,0.653-0.21c0.18-0.141,0.348-0.383,0.502-0.723l0.281-0.634l-2.36-5.222h0.532l2.099,4.69l2.099-4.69
			H120.951z"/>
	</g>
</g>
<g id="Layer_2">
	<circle fill="#E5E5E5" stroke="#3382B9" stroke-width="1.5" stroke-miterlimit="10" cx="18.781" cy="21.539" r="17.522"/>
	<g>
		<defs>
			<ellipse id="SVGID_1_" cx="18.769" cy="23.455" rx="15.999" ry="15.629"/>
		</defs>
		<clipPath id="SVGID_2_">
			<use xlink:href="#SVGID_1_"  overflow="visible"/>
		</clipPath>
		<path clip-path="url(#SVGID_2_)" fill="#1B262C" stroke="#000000" stroke-width="0.25" stroke-miterlimit="10" d="M25.404,24.539
			c-0.124,0.774-2.938,1.422-6.564,1.422c-3.625,0-6.506-0.64-6.563-1.422c-0.065-0.896,2.977-2.127,6.602-2.127
			C22.503,22.412,25.534,23.722,25.404,24.539z"/>
		<rect x="12.344" y="24.179" clip-path="url(#SVGID_2_)" fill="#1B262C" width="13.06" height="15.645"/>
	</g>
	<path fill="#1B262C" stroke="#000000" stroke-width="0.25" stroke-miterlimit="10" d="M12.401,24.179c0,0-6,7.185-6.007,8.002
		c-0.008,0.817,6.34,5.648,6.34,5.648"/>
	<path fill="#1B262C" stroke="#000000" stroke-width="0.25" stroke-miterlimit="10" d="M25.282,24.179c0,0,5.842,7.185,5.85,8.002
		c0.007,0.817-6.183,5.648-6.183,5.648"/>
	<path fill="#1B262C" d="M24.691,20.391c-1.414,4.364-3.098,5.854-5.997,5.854c-2.9,0-3.589-1.536-5.78-6.075
		c-0.771-1.597,4.147-9.752,6.001-9.752C20.809,10.417,25.259,18.64,24.691,20.391z"/>
	<path fill="#354147" d="M24.741,19.866c-1.958-1.248-4.243-2.43-5.939-2.483c-1.696-0.055-3.643,1.051-5.969,2.318
		c-0.267-1.227,4.229-9.283,6.083-9.283C20.809,10.417,25.134,18.719,24.741,19.866z"/>
	
		<ellipse transform="matrix(-0.9988 0.0487 -0.0487 -0.9988 42.0664 38.2477)" fill="#3382B9" cx="20.567" cy="19.637" rx="0.872" ry="0.378"/>
	
		<ellipse transform="matrix(0.9988 0.0487 -0.0487 0.9988 0.9775 -0.804)" fill="#3382B9" cx="16.971" cy="19.637" rx="0.871" ry="0.378"/>
	
		<rect x="10.422" y="37.655" fill="#276587" stroke="#000000" stroke-width="0.25" stroke-miterlimit="10" width="16.793" height="1.387"/>
	
		<rect x="9.991" y="28.233" fill="#3382B9" stroke="#000000" stroke-width="0.25" stroke-miterlimit="10" width="17.656" height="10.114"/>
	
		<rect x="9.991" y="38.792" fill="#3382B9" stroke="#000000" stroke-width="0.25" stroke-miterlimit="10" width="17.656" height="0.738"/>
	<g>
		<path fill="#F6F6F6" d="M17.655,32.805l-0.896,0.329l0.896,0.325v0.336l-1.28-0.487v-0.35l1.28-0.486V32.805z"/>
		<path fill="#F6F6F6" d="M19.091,31.812h0.374l-0.888,2.532h-0.374L19.091,31.812z"/>
		<path fill="#F6F6F6" d="M21.267,32.958v0.35l-1.281,0.487v-0.336l0.895-0.325l-0.895-0.329v-0.333L21.267,32.958z"/>
	</g>
</g>
</svg>
